<svg xmlns="http://www.w3.org/2000/svg" viewBox="0 0 1260 620" width="1260" height="620" font-family="Segoe UI, Arial, sans-serif">
  <title>Causal GPT-RL — How an Action Is Generated in a Rollout</title>
  <desc>A rollout unrolled: each token pairs a state with an action. The state arrives from the environment at every step, while the action is produced by the model and fed back in as part of the next token, so the policy conditions on its own output.</desc>
  <rect width="1260" height="620" fill="#ffffff"/>

  <!-- ================= TITLE ================= -->
  <text x="630" y="64" text-anchor="middle" font-size="40" font-weight="700" fill="#404040">How an Action Is Generated in a Rollout</text>

  <!-- ================= THE WORLD SUPPLIES STATE ================= -->
  <rect x="60" y="140" width="1140" height="64" rx="18" fill="#f7f4fb" stroke="#c4a7e7" stroke-width="2"/>
  <text x="630" y="180" text-anchor="middle" font-size="20" font-weight="600" fill="#6b4f9e">Your environment — a new state to act on, every step</text>

  <!-- ================= STEP t ================= -->
  <rect x="120" y="330" width="200" height="100" rx="18" fill="#404040"/>
  <path d="M170 204 V 340" fill="none" stroke="#c4a7e7" stroke-width="4"/>
  <polygon points="170,356 159,336 181,336" fill="#c4a7e7"/>
  <circle cx="170" cy="380" r="28" fill="#c4a7e7"/>
  <text x="170" y="388" text-anchor="middle" font-size="21" font-style="italic" fill="#2b2b2b">s<tspan dy="6" font-size="13">t</tspan></text>
  <circle cx="270" cy="380" r="28" fill="#f6c68a"/>
  <text x="270" y="388" text-anchor="middle" font-size="21" font-style="italic" fill="#2b2b2b">a<tspan dy="6" font-size="13">t</tspan></text>
  <text x="220" y="458" text-anchor="middle" font-size="15" fill="#8a8a8a">one token = [ state , action ]</text>

  <path d="M320 380 H 366" fill="none" stroke="#404040" stroke-width="3"/>
  <polygon points="372,380 362,374 362,386" fill="#404040"/>

  <rect x="378" y="340" width="130" height="80" rx="16" fill="#404040"/>
  <text x="443" y="376" text-anchor="middle" font-size="21" font-weight="700" fill="#ffffff">GPT</text>
  <text x="443" y="400" text-anchor="middle" font-size="13" fill="#c9c9c9">+ KV cache</text>

  <path d="M508 380 H 554" fill="none" stroke="#c98a2e" stroke-width="3"/>
  <polygon points="560,380 550,374 550,386" fill="#c98a2e"/>

  <text x="600" y="326" text-anchor="middle" font-size="16" font-weight="600" fill="#9a6a1e">generated</text>
  <circle cx="600" cy="380" r="32" fill="#f6c68a"/>
  <text x="600" y="389" text-anchor="middle" font-size="23" font-style="italic" fill="#2b2b2b">a<tspan dy="6" font-size="14">t+1</tspan></text>

  <!-- ================= STEP t+1 ================= -->
  <rect x="700" y="330" width="200" height="100" rx="18" fill="#404040"/>
  <path d="M750 204 V 340" fill="none" stroke="#c4a7e7" stroke-width="4"/>
  <polygon points="750,356 739,336 761,336" fill="#c4a7e7"/>
  <circle cx="750" cy="380" r="28" fill="#c4a7e7"/>
  <text x="750" y="388" text-anchor="middle" font-size="19" font-style="italic" fill="#2b2b2b">s<tspan dy="6" font-size="12">t+1</tspan></text>
  <circle cx="850" cy="380" r="28" fill="#f6c68a"/>
  <text x="850" y="388" text-anchor="middle" font-size="19" font-style="italic" fill="#2b2b2b">a<tspan dy="6" font-size="12">t+1</tspan></text>

  <path d="M900 380 H 946" fill="none" stroke="#404040" stroke-width="3"/>
  <polygon points="952,380 942,374 942,386" fill="#404040"/>

  <rect x="958" y="340" width="130" height="80" rx="16" fill="#404040"/>
  <text x="1023" y="376" text-anchor="middle" font-size="21" font-weight="700" fill="#ffffff">GPT</text>
  <text x="1023" y="400" text-anchor="middle" font-size="13" fill="#c9c9c9">+ KV cache</text>

  <path d="M1088 380 H 1134" fill="none" stroke="#c98a2e" stroke-width="3"/>
  <polygon points="1140,380 1130,374 1130,386" fill="#c98a2e"/>

  <circle cx="1180" cy="380" r="32" fill="#f6c68a"/>
  <text x="1180" y="389" text-anchor="middle" font-size="23" font-style="italic" fill="#2b2b2b">a<tspan dy="6" font-size="14">t+2</tspan></text>

  <!-- ================= THE ACTION FEEDS ITSELF BACK ================= -->
  <path d="M600 414 C 640 476, 810 476, 850 414" fill="none" stroke="#c98a2e" stroke-width="3"/>
  <polygon points="851,410 838,424 856,421" fill="#c98a2e"/>
  <text x="725" y="512" text-anchor="middle" font-size="17" font-style="italic" font-weight="600" fill="#9a6a1e">the same action goes straight back in</text>

  <!-- ================= CAPTION ================= -->
  <text x="630" y="566" text-anchor="middle" font-size="19" fill="#404040">The state arrives from the environment; the model generates its own action — so a rollout runs on its own history.</text>
</svg>
